<svg width="261" height="259" viewBox="0 0 261 259" fill="none" xmlns="http://www.w3.org/2000/svg" xmlns:xlink="http://www.w3.org/1999/xlink">
<path d="M208.064 11.624C231.864 22.824 252.248 43.32 258.24 67.288C264.232 91.2 255.888 118.528 248.272 143.392C240.656 168.256 233.768 190.6 220.496 
209.304C207.224 227.952 187.568 242.96 164.888 251.192C142.208 259.368 116.56 260.824 95 252.536C73.44 244.248 56.024 226.216 41.744 207.008C27.464 
187.8 16.376 167.36 8.592 143.672C0.864001 119.928 -3.616 92.936 5.4 71.6C14.36 50.208 36.76 34.472 59.776 22.992C82.792 11.456 106.368 4.12001 131.792 
1.37601C157.16 -1.36799 184.32 0.479999 208.064 11.624Z" fill="url(#pattern1)"/>
<defs>
<pattern id="pattern1" patternContentUnits="objectBoundingBox" width="1" height="1">
<use xlink:href="#image1" transform="translate(-0.286011) scale(0.000383794)"/>
</pattern>
<image
            id="image1"
            width="4096"
            height="2585"
            href="https://www.dropbox.com/s/k52mdb9ftjrxjas/proj1ImgSq.png?raw=1"
          />
</defs>
</svg>