<svg width="269" height="265" viewBox="0 0 269 265" fill="none" xmlns="http://www.w3.org/2000/svg" xmlns:xlink="http://www.w3.org/1999/xlink">
<g filter="url(#filter0_d)">
<path d="M55.9021 246.513C32.2064 235.093 12.0124 214.41 6.24183 190.388C0.470706 166.422 9.06648 139.172 16.9116 114.379C24.7567 89.5865 31.8505 67.307 45.2946 48.7262C58.7381 30.2015 78.5317 15.3755 101.287 7.35311C124.041 -0.613273 149.701 -1.83259 171.184 6.654C192.667 15.1406 209.916 33.3325 224.018 52.6714C238.12 72.0104 249.019 92.5518 256.584 116.311C264.093 140.125 268.323 167.157 259.111 188.409C249.954 209.717 227.41 225.246 204.289 236.513C181.167 247.836 157.525 254.955 132.076 257.464C106.684 259.974 79.5423 257.875 55.9021 246.513Z" fill="url(#pattern0)"/>
</g>
<defs>
<filter id="filter0_d" x="0.355743" y="0.812793" width="268.008" height="265.598" filterUnits="userSpaceOnUse" color-interpolation-filters="sRGB">
<feFlood flood-opacity="0" result="BackgroundImageFix"/>
<feColorMatrix in="SourceAlpha" type="matrix" values="0 0 0 0 0 0 0 0 0 0 0 0 0 0 0 0 0 0 127 0"/>
<feOffset dy="4"/>
<feGaussianBlur stdDeviation="2"/>
<feColorMatrix type="matrix" values="0 0 0 0 0 0 0 0 0 0 0 0 0 0 0 0 0 0 0.25 0"/>
<feBlend mode="normal" in2="BackgroundImageFix" result="effect1_dropShadow"/>
<feBlend mode="normal" in="SourceGraphic" in2="effect1_dropShadow" result="shape"/>
</filter>
<pattern id="pattern0" patternContentUnits="objectBoundingBox" width="1" height="1">
<use xlink:href="#image0" transform="translate(-0.286011) scale(0.000383794)"/>
</pattern>
<image id="image0" width="4096" height="2585" xlink:href="https://images.unsplash.com/photo-1507120410856-1f35574c3b45?ixlib=rb-1.2.1&ixid=eyJhcHBfaWQiOjEyMDd9&auto=format&fit=crop&w=1050&q=80"/>
</defs>
</svg>
