<!-- <svg viewBox="0 0 939px 903px" fill="none" xmlns="http://www.w3.org/2000/svg">
<path d="M0 -83.7437H936V529.987H0V-83.7437Z" fill="url(#paint0_linear)"/>
<path d="M954.468 722.739L941.214 695.113C927.96 666.968 901.453 612.493 874.941 605.092C848.43 598.209 821.914 639.698 795.398 688.06C768.882 736.94 742.365 791.396 715.85 833.274C689.334 874.373 662.82 902.894 636.308 902.495C609.796 902.875 583.286 874.336 556.778 826.345C530.27 778.355 503.764 708.318 477.253 687.949C450.743 666.802 424.229 695.323 397.717 687.922C371.206 681.039 344.697 639.532 318.186 625.648C291.675 612.281 265.162 625.24 238.647 667.118C212.131 708.217 185.613 778.235 159.099 805.459C132.584 832.682 106.074 819.705 79.5639 791.555C53.0541 763.924 26.5456 722.417 13.2913 701.664L0.0370413 680.911L0.0510895 514.92L13.3071 514.925C26.5632 514.929 53.0752 514.938 79.5873 514.948C106.099 514.957 132.611 514.966 159.123 514.975C185.635 514.984 212.148 514.993 238.66 515.003C265.172 515.012 291.684 515.021 318.196 515.03C344.708 515.039 371.22 515.049 397.732 515.058C424.244 515.067 450.756 515.076 477.268 515.085C503.78 515.095 530.292 515.104 556.804 515.113C583.316 515.122 609.828 515.131 636.34 515.141C662.853 515.15 689.365 515.159 715.877 515.168C742.389 515.177 768.901 515.187 795.413 515.196C821.925 515.205 848.437 515.214 874.949 515.223C901.461 515.233 927.973 515.242 941.229 515.246L954.485 515.251L954.468 722.739Z" fill="url(#paint1_linear)"/>
<defs>
<linearGradient id="paint0_linear" x1="477.235" y1="902.444" x2="477.37" y2="515.086" gradientUnits="userSpaceOnUse">
<stop stop-color="white"/>
<stop offset="1" stop-color="#E6D9FC"/>
</linearGradient>
<linearGradient id="paint1_linear" x1="477.235" y1="902.444" x2="477.37" y2="515.086" gradientUnits="userSpaceOnUse">
<stop stop-color="white"/>
<stop offset="1" stop-color="#E6D9FC"/>
</linearGradient>
</defs>
</svg> -->

<!-- <svg viewBox="0 0 1143 219" fill="none" xmlns="http://www.w3.org/2000/svg">
<path d="M1142 108.139L1126.12 93.8655C1110.23 79.3236 1078.47 51.1806 1046.77 47.4266C1015.07 43.9412 983.424 65.5168 951.789 90.6533C920.155 116.059 888.528 144.353 856.886 166.13C825.242 187.504 793.583 202.361 761.888 202.235C730.194 202.512 698.465 187.806 666.711 163.023C634.957 138.239 603.177 102.034 571.457 91.5608C539.737 80.6849 508.077 95.5417 476.374 91.7876C444.671 88.3023 412.925 66.878 381.214 59.7646C349.503 52.9199 317.825 59.7143 286.182 81.4914C254.539 102.865 222.931 139.222 191.27 153.407C159.61 167.592 127.899 160.949 96.17 146.445C64.4415 132.21 32.6959 110.785 16.8231 100.073L0.950226 89.3611L0.74503 3.36131L16.5922 3.3235C32.4394 3.28569 64.1337 3.21006 95.8281 3.13444C127.522 3.05882 159.217 2.98319 190.911 2.90757C222.605 2.83195 254.3 2.75633 285.994 2.6807C317.689 2.60508 349.383 2.52946 381.077 2.45383C412.772 2.37821 444.466 2.30259 476.16 2.22697C507.855 2.15134 539.549 2.07572 571.243 2.0001C602.938 1.92447 634.632 1.84885 666.326 1.77323C698.021 1.6976 729.715 1.62198 761.409 1.54636C793.104 1.47074 824.798 1.39511 856.493 1.31949C888.187 1.24387 919.881 1.16824 951.576 1.09262C983.27 1.017 1014.96 0.941375 1046.66 0.865753C1078.35 0.79013 1110.05 0.714507 1125.89 0.676695L1141.74 0.638884L1142 108.139Z" fill="url(#paint0_linear)"/>
<defs>
<linearGradient id="paint0_linear" x1="571.722" y1="202.691" x2="571.243" y2="2.0001" gradientUnits="userSpaceOnUse">
<stop stop-color="white"/>
<stop offset="1" stop-color="#EAD0EE"/>
</linearGradient>
</defs>
</svg> -->

<svg width="1142" height="765" viewBox="0 0 1142 765" fill="none" xmlns="http://www.w3.org/2000/svg">
<rect y="-9" width="1141" height="559" fill="url(#paint0_linear)"/>
<path d="M1141.15 655.5L1125.28 641.211C1109.41 626.654 1077.68 598.479 1045.98 594.694C1014.28 591.177 982.617 612.721 950.957 637.826C919.298 663.2 887.643 691.463 855.979 713.209C824.315 734.552 792.641 749.377 760.946 749.22C729.252 749.466 697.537 734.729 665.808 709.914C634.079 685.099 602.334 648.862 570.624 638.357C538.915 627.45 507.241 642.276 475.541 638.49C443.842 634.973 412.117 613.518 380.413 606.373C348.709 599.497 317.024 606.26 285.36 628.006C253.695 649.348 222.051 685.674 190.377 699.827C158.702 713.981 126.998 707.307 95.2833 692.771C63.5689 678.504 31.8446 657.049 15.9823 646.321L0.120145 635.593L6.63525e-05 549.593L15.8472 549.571C31.6945 549.549 63.3888 549.505 95.0832 549.46C126.778 549.416 158.472 549.372 190.166 549.328C221.861 549.283 253.555 549.239 285.25 549.195C316.944 549.151 348.639 549.106 380.333 549.062C412.027 549.018 443.722 548.974 475.416 548.929C507.111 548.885 538.805 548.841 570.499 548.797C602.194 548.752 633.888 548.708 665.583 548.664C697.277 548.62 728.971 548.575 760.666 548.531C792.36 548.487 824.055 548.443 855.749 548.398C887.443 548.354 919.138 548.31 950.832 548.266C982.527 548.221 1014.22 548.177 1045.92 548.133C1077.61 548.088 1109.3 548.044 1125.15 548.022L1141 548L1141.15 655.5Z" fill="url(#paint1_linear)"/>
<defs>
<linearGradient id="paint0_linear" x1="570.5" y1="-9" x2="570.5" y2="550" gradientUnits="userSpaceOnUse">
<stop stop-color="#EAD0EE"/>
<stop offset="1" stop-color="#EAD0EE"/>
</linearGradient>
<linearGradient id="paint1_linear" x1="570.78" y1="749.487" x2="570.499" y2="548.797" gradientUnits="userSpaceOnUse">
<stop stop-color="white"/>
<stop offset="1" stop-color="#EAD0EE"/>
</linearGradient>
</defs>
</svg>


