<svg width="1238" height="597" viewBox="0 0 1238 597" fill="none" xmlns="http://www.w3.org/2000/svg">
<path d="M883.476 190.99C945.693 210.238 976.746 255.495 1006.13 299.514C1035.33 343.513 1062.65 386.351 1030.87 412.496C999.298 438.661 908.42 448.21 843.7 464.256C778.979 480.303 740.416 502.846 683.904 516.19C627.195 529.515 552.725 533.757 480.368 522.684C408.01 511.61 337.569 485.201 275.619 451.236C213.669 417.271 160.416 375.673 147.316 333.561C134.216 291.449 161.269 248.822 222.609 228.828C283.949 208.834 379.556 211.666 453.959 208.101C528.352 204.632 581.532 194.863 654.813 186.597C728.084 178.428 821.456 171.762 883.476 190.99Z" fill="#FFB4BC"/>
<path d="M340.416 362.144C340.512 363.68 340.848 367.568 341.424 373.808C342.096 379.952 342.432 385.088 342.432 389.216C342.432 394.592 341.808 397.472 340.56 397.856C340.176 397.952 339.552 398 338.688 398C336.576 398 333.936 397.52 330.768 396.56C327.696 395.504 324.912 394.208 322.416 392.672C320.016 391.136 318.624 389.648 318.24 388.208C317.856 386.768 317.664 380.72 317.664 370.064C307.296 371.312 300.48 372.08 297.216 372.368C294.624 379.952 291.648 388.256 288.288 397.28C285.696 397.856 283.296 398.144 281.088 398.144C277.248 398.144 273.984 397.232 271.296 395.408C268.704 393.488 266.976 390.608 266.112 386.768L268.992 380.288C279.552 356.768 288.672 337.04 296.352 321.104C304.128 305.168 309.168 297.2 311.472 297.2C313.296 297.2 315.936 297.872 319.392 299.216C322.944 300.56 326.112 302.192 328.896 304.112C331.776 306.032 333.408 307.76 333.792 309.296C334.464 311.984 335.376 317.6 336.528 326.144C337.68 334.688 338.592 342.944 339.264 350.912L340.416 362.144ZM317.232 319.664C313.008 329.648 308.832 340.352 304.704 351.776C309.12 351.488 313.488 351.056 317.808 350.48C317.808 337.232 317.616 326.96 317.232 319.664ZM397.68 321.68C402.96 321.776 407.712 322.784 411.936 324.704C416.16 326.624 419.472 329.264 421.872 332.624C424.368 335.984 425.616 339.776 425.616 344C425.616 351.296 423.456 359.216 419.136 367.76C414.816 376.208 409.008 383.36 401.712 389.216C394.512 395.072 386.832 398 378.672 398C374.448 398 370.272 396.56 366.144 393.68C362.016 390.8 358.608 387.392 355.92 383.456C353.232 379.52 351.888 376.208 351.888 373.52C351.888 367.184 354 356.672 358.224 341.984C360.048 335.936 361.728 327.584 363.264 316.928C364.8 306.272 365.616 298.496 365.712 293.6C365.808 291.584 366.48 289.904 367.728 288.56C369.072 287.12 370.656 286.4 372.48 286.4C375.072 286.4 377.952 287.408 381.12 289.424C384.384 291.344 387.12 293.648 389.328 296.336C391.632 298.928 392.784 301.136 392.784 302.96C392.688 307.568 390.528 315.344 386.304 326.288L397.68 321.68ZM378.672 379.856C382.128 379.856 385.632 377.84 389.184 373.808C392.832 369.776 395.808 364.976 398.112 359.408C400.512 353.84 401.712 349.04 401.712 345.008C401.712 343.952 400.848 342.848 399.12 341.696C397.392 340.544 395.328 339.584 392.928 338.816C390.624 337.952 388.56 337.52 386.736 337.52C385.68 337.52 384.816 337.712 384.144 338.096C382.608 338.96 381.12 341.216 379.68 344.864C378.24 348.416 377.04 352.544 376.08 357.248C375.216 361.952 374.784 366.224 374.784 370.064C374.784 373.04 375.072 375.44 375.648 377.264C376.32 378.992 377.328 379.856 378.672 379.856ZM465.281 316.64C472.097 317.408 478.289 319.472 483.857 322.832C489.521 326.096 493.937 330.032 497.105 334.64C500.273 339.248 501.857 343.856 501.857 348.464C501.857 355.376 500.081 362.72 496.529 370.496C492.977 378.272 488.033 384.8 481.697 390.08C475.361 395.36 468.305 398 460.529 398C456.689 398 452.609 396.608 448.289 393.824C443.969 390.944 440.321 387.488 437.345 383.456C434.465 379.328 433.025 375.68 433.025 372.512C433.025 366.656 433.745 360.656 435.185 354.512C436.625 348.272 438.833 342.224 441.809 336.368C444.593 334.832 447.377 334.064 450.161 334.064C451.409 334.064 452.561 334.208 453.617 334.496C453.233 333.344 453.041 332 453.041 330.464C453.041 327.392 454.097 324.608 456.209 322.112C458.417 319.616 461.441 317.792 465.281 316.64ZM455.345 381.584C463.313 378.896 469.505 374.288 473.921 367.76C478.337 361.232 481.265 353.456 482.705 344.432C478.385 341.36 472.529 339.824 465.137 339.824C463.313 339.824 461.921 339.872 460.961 339.968C462.017 341.888 462.545 344.048 462.545 346.448C460.049 350.384 458.129 354.752 456.785 359.552C455.441 364.256 454.769 369.008 454.769 373.808C454.769 376.688 454.961 379.28 455.345 381.584ZM527.74 398C525.244 398 522.508 397.088 519.532 395.264C516.652 393.344 514.204 391.184 512.188 388.784C510.172 386.288 509.164 384.272 509.164 382.736C509.164 381.2 509.596 378.992 510.46 376.112C511.42 373.232 512.38 370.352 513.34 367.472C514.396 364.592 515.068 362.768 515.356 362C516.604 358.64 517.708 355.472 518.668 352.496C519.724 349.52 520.252 347.504 520.252 346.448C520.252 345.68 519.772 344.864 518.812 344C517.948 343.04 516.604 341.888 514.78 340.544C512.668 338.912 511.084 337.616 510.028 336.656C509.068 335.696 508.588 334.688 508.588 333.632C508.588 331.616 509.5 329.264 511.324 326.576C513.244 323.888 515.452 321.584 517.948 319.664C520.54 317.744 522.748 316.784 524.572 316.784C526.588 316.784 528.892 317.696 531.484 319.52C534.172 321.344 536.476 323.456 538.396 325.856C540.412 328.16 541.42 329.936 541.42 331.184C541.42 337.136 540.412 344.288 538.396 352.64C536.38 360.992 533.788 369.296 530.62 377.552C536.956 372.272 542.62 366.416 547.612 359.984C552.604 353.552 556.108 347.792 558.124 342.704C558.316 336.464 559.036 331.232 560.284 327.008C561.628 322.784 563.164 320.672 564.892 320.672C567.388 320.672 570.124 321.584 573.1 323.408C576.172 325.136 578.764 327.2 580.876 329.6C582.988 331.904 584.044 333.728 584.044 335.072C583.948 337.088 583.036 340.88 581.308 346.448C579.58 351.92 577.18 358.976 574.108 367.616C572.284 372.992 571.228 376.064 570.94 376.832C573.724 375.584 576.22 374.288 578.428 372.944C580.732 371.504 583.132 369.728 585.628 367.616C589.852 369.056 592.972 371.072 594.988 373.664C597.1 376.16 598.156 379.04 598.156 382.304C598.156 384.608 596.524 387.008 593.26 389.504C589.996 391.904 586.108 393.92 581.596 395.552C577.084 397.184 573.244 398 570.076 398C568.06 398 565.66 397.184 562.876 395.552C560.092 393.824 557.596 391.904 555.388 389.792C553.276 387.584 552.22 385.952 552.22 384.896C552.22 383.84 552.556 382.544 553.228 381.008C553.996 379.472 554.812 377.84 555.676 376.112C556.636 374.288 557.356 372.992 557.836 372.224L554.236 370.208C548.956 379.904 544.396 386.96 540.556 391.376C536.812 395.792 532.54 398 527.74 398ZM636.559 341.408C633.391 355.904 631.327 367.712 630.367 376.832C636.511 373.856 641.455 370.784 645.199 367.616C649.423 369.056 652.543 371.072 654.559 373.664C656.671 376.16 657.727 379.04 657.727 382.304C657.727 384.608 656.095 387.008 652.831 389.504C649.567 391.904 645.679 393.92 641.167 395.552C636.655 397.184 632.815 398 629.647 398C626.863 398 623.743 397.184 620.287 395.552C616.927 393.824 614.047 391.856 611.647 389.648C609.247 387.344 608.047 385.376 608.047 383.744C608.047 382.4 608.527 379.52 609.487 375.104C610.543 370.592 611.455 366.752 612.223 363.584C613.087 360.32 613.711 357.92 614.095 356.384L617.551 342.56L608.767 343.136C607.135 342.368 605.887 341.168 605.023 339.536C604.159 337.904 603.727 336.032 603.727 333.92C603.727 330.08 605.119 326.816 607.903 324.128C611.359 324.32 615.583 324.512 620.575 324.704C620.575 318.56 621.247 311.792 622.591 304.4C623.935 296.912 625.423 293.168 627.055 293.168C629.071 293.168 631.615 294.032 634.687 295.76C637.759 297.488 640.447 299.504 642.751 301.808C645.055 304.112 646.207 306.128 646.207 307.856C646.207 310.064 645.775 312.32 644.911 314.624C644.143 316.832 642.847 319.904 641.023 323.84C642.655 323.648 646.783 322.976 653.407 321.824L656.719 321.248C658.447 322.208 659.743 323.6 660.607 325.424C661.567 327.248 662.047 329.216 662.047 331.328C662.047 333.056 661.711 334.736 661.039 336.368C660.367 338 659.359 339.392 658.015 340.544L636.559 341.408ZM726.135 398C723.927 398 721.287 397.232 718.215 395.696C715.239 394.064 712.599 392.144 710.295 389.936C708.087 387.728 706.983 385.904 706.983 384.464C706.887 382.928 707.319 379.712 708.279 374.816C709.335 369.824 710.007 366.608 710.295 365.168C710.679 363.248 711.399 359.744 712.455 354.656C713.511 349.472 714.375 344.672 715.047 340.256L716.199 333.488C718.023 322.736 719.703 314 721.239 307.28C722.871 300.56 724.503 297.2 726.135 297.2C727.767 297.2 729.975 297.872 732.759 299.216C735.639 300.56 738.327 302.288 740.823 304.4C743.319 306.416 744.999 308.336 745.863 310.16C747.399 313.616 749.415 321.008 751.911 332.336C753.639 340.208 754.935 345.632 755.799 348.608C759.927 342.368 765.207 332.816 771.639 319.952C775.767 311.792 778.887 305.984 780.999 302.528C783.207 298.976 785.175 297.2 786.903 297.2C788.727 297.2 791.175 298.016 794.247 299.648C797.415 301.28 800.151 303.2 802.455 305.408C804.855 307.616 806.055 309.536 806.055 311.168C806.055 312.512 805.479 316.304 804.327 322.544C803.175 328.688 802.455 332.528 802.167 334.064L798.423 354.368C797.463 360.032 796.455 367.472 795.399 376.688C794.439 384.56 793.575 390.08 792.807 393.248C792.135 396.416 791.031 398 789.495 398C787.287 398 784.647 397.232 781.575 395.696C778.599 394.064 775.959 392.144 773.655 389.936C771.447 387.728 770.343 385.904 770.343 384.464C770.247 383.216 770.583 380.576 771.351 376.544C772.215 372.416 773.175 367.76 774.231 362.576C775.095 358.448 775.575 356.096 775.671 355.52L780.855 339.536L778.839 338.816L777.399 341.696C773.655 349.376 770.631 355.376 768.327 359.696C766.119 363.92 764.295 366.944 762.855 368.768C761.895 369.92 760.167 370.88 757.671 371.648C755.175 372.32 752.727 372.656 750.327 372.656C747.831 372.656 746.151 372.224 745.287 371.36C744.423 370.592 743.655 369.008 742.983 366.608C742.407 364.112 741.591 360.272 740.535 355.088C740.343 354.032 739.815 351.488 738.951 347.456C738.087 343.328 737.127 339.584 736.071 336.224L735.063 354.368C734.103 360.032 733.095 367.472 732.039 376.688C731.079 384.56 730.215 390.08 729.447 393.248C728.775 396.416 727.671 398 726.135 398ZM840.036 398C835.428 398 830.628 396.512 825.636 393.536C820.644 390.464 816.516 386.72 813.252 382.304C809.988 377.888 808.356 373.712 808.356 369.776C808.356 362.768 809.988 355.088 813.252 346.736C816.612 338.384 821.22 331.328 827.076 325.568C832.932 319.712 839.556 316.784 846.948 316.784C852.228 316.784 856.98 317.936 861.204 320.24C865.524 322.544 868.884 325.424 871.284 328.88C873.684 332.336 874.884 335.696 874.884 338.96C874.884 342.992 873.06 346.976 869.412 350.912C865.764 354.752 860.676 358.16 854.148 361.136C847.62 364.016 840.18 366.08 831.828 367.328C831.732 368.48 831.684 370.208 831.684 372.512C831.684 375.392 831.78 377.552 831.972 378.992C836.772 378.512 841.524 377.216 846.228 375.104C850.932 372.992 856.068 370.016 861.636 366.176C865.38 367.328 868.212 369.152 870.132 371.648C872.052 374.144 873.012 377.12 873.012 380.576C873.012 383.456 871.236 386.288 867.684 389.072C864.228 391.76 859.908 393.92 854.724 395.552C849.54 397.184 844.644 398 840.036 398ZM833.988 356.528C839.844 354.416 844.74 351.728 848.676 348.464C852.612 345.2 854.58 342.416 854.58 340.112C854.58 337.424 852.708 335.6 848.964 334.64C845.316 337.328 842.196 340.544 839.604 344.288C837.108 348.032 835.236 352.112 833.988 356.528Z" fill="white"/>
</svg>
