<svg width="1152" height="1120" viewBox="0 0 1152 1120" fill="none" xmlns="http://www.w3.org/2000/svg" xmlns:xlink="http://www.w3.org/1999/xlink">
<g filter="url(#filter0_d)">
<path d="M1146.53 906.151L1130.64 874.943C1114.74 843.148 1082.96 781.612 1051.26 773.299C1019.55 765.572 987.924 812.535 956.306 867.269C924.688 922.589 893.08 984.213 861.452 1031.62C829.822 1078.14 798.173 1110.44 766.478 1110.04C734.784 1110.53 703.045 1078.32 671.274 1024.11C639.504 969.905 607.699 890.775 575.973 867.8C544.245 843.945 512.596 876.246 480.89 867.932C449.184 860.206 417.424 813.332 385.708 797.688C353.993 782.63 322.319 797.336 290.69 844.739C259.061 891.262 227.477 970.481 195.826 1001.32C164.174 1032.15 132.459 1017.53 100.72 985.76C68.9823 954.574 37.2224 907.7 21.3424 884.262L5.4625 860.825L4.81278 1.90509L20.675 1.93129L99.9762 2.06225C99.9762 2.06225 130.499 2.20923 162.193 2.16498C193.888 2.12072 297.999 2.48569 329.693 2.44144C361.388 2.39718 426.499 2.6978 458.194 2.65354C489.888 2.60929 531 2.87035 562.694 2.8261C594.388 2.78185 638.582 3.04786 670.277 3.00361C701.971 2.95936 674 3.10643 705.694 3.06218C737.389 3.01793 771 3.26655 802.695 3.2223C834.389 3.17805 868 3.42667 899.695 3.38242C931.389 3.33817 953.001 3.56699 984.695 3.52273C1016.39 3.47848 1033 3.6989 1064.7 3.65465C1096.39 3.61039 1084.85 3.73633 1100.7 3.7142L1145.84 3.78875L1146.53 906.151Z" fill="url(#pattern0)"/>
</g>
<defs>
<filter id="filter0_d" x="0.263214" y="0.31189" width="1151.12" height="1118.8" filterUnits="userSpaceOnUse" color-interpolation-filters="sRGB">
<feFlood flood-opacity="0" result="BackgroundImageFix"/>
<feColorMatrix in="SourceAlpha" type="matrix" values="0 0 0 0 0 0 0 0 0 0 0 0 0 0 0 0 0 0 127 0"/>
<feOffset dy="4"/>
<feGaussianBlur stdDeviation="2"/>
<feColorMatrix type="matrix" values="0 0 0 0 0 0 0 0 0 0 0 0 0 0 0 0 0 0 0.25 0"/>
<feBlend mode="normal" in2="BackgroundImageFix" result="effect1_dropShadow"/>
<feBlend mode="normal" in="SourceGraphic" in2="effect1_dropShadow" result="shape"/>
</filter>
<pattern id="pattern0" patternContentUnits="objectBoundingBox" width="1" height="1">
<use xlink:href="#image0" transform="translate(-0.229426) scale(0.00138806)"/>
</pattern>
<image id="image0" width="1051" height="760" xlink:href="https://www.dropbox.com/s/srjyi8jjhqd7fqp/MOSHED-2020-3-7-1-47-51.jpg?raw=1"/>
</defs>
</svg>





