<svg width="1152" height="1171" viewBox="0 0 1152 1171" fill="none" xmlns="http://www.w3.org/2000/svg" xmlns:xlink="http://www.w3.org/1999/xlink">
<g filter="url(#filter0_d)">
<path d="M1146.49 1070.5L1130.63 1056.45C1114.76 1042.14 1083.03 1014.44 1051.33 1010.71C1019.63 1007.26 987.962 1028.44 956.302 1053.13C924.642 1078.08 892.987 1105.87 861.322 1127.25C829.657 1148.24 797.983 1162.81 766.288 1162.66C734.594 1162.9 702.879 1148.41 671.151 1124.01C639.422 1099.62 607.678 1063.99 575.969 1053.66C544.26 1042.93 512.586 1057.51 480.886 1053.79C449.187 1050.33 417.463 1029.24 385.759 1022.21C354.055 1015.45 322.369 1022.1 290.705 1043.49C259.04 1064.47 227.395 1100.19 195.72 1114.11C164.045 1128.03 132.341 1121.46 100.627 1107.17C68.9129 1093.15 37.189 1072.05 21.3271 1061.5L5.46517 1050.95L5.34228 1.59321L21.2029 1.59492L130.674 1.6089C130.674 1.6089 163.895 1.66152 195.59 1.61726C227.284 1.57301 353.945 1.68585 385.639 1.6416C417.333 1.59734 449.068 1.69788 480.763 1.65362C512.457 1.60937 580.48 1.7148 612.174 1.67055C643.869 1.6263 639.325 1.72219 671.019 1.67793C702.714 1.63368 707.98 1.73119 739.675 1.68694C771.369 1.64269 770.98 1.73904 802.675 1.69478C834.369 1.65053 895.48 1.75522 927.174 1.71097C958.869 1.66671 978.48 1.76579 1010.17 1.72153C1041.87 1.67728 1019.51 1.77112 1051.21 1.72687C1082.9 1.68261 1079.83 1.75473 1095.67 1.73261L1146.37 1.73911L1146.49 1070.5Z" fill="url(#pattern0)"/>
</g>
<defs>
<filter id="filter0_d" x="0" y="0" width="1151.99" height="1171.72" filterUnits="userSpaceOnUse" color-interpolation-filters="sRGB">
<feFlood flood-opacity="0" result="BackgroundImageFix"/>
<feColorMatrix in="SourceAlpha" type="matrix" values="0 0 0 0 0 0 0 0 0 0 0 0 0 0 0 0 0 0 127 0"/>
<feOffset dy="4"/>
<feGaussianBlur stdDeviation="2"/>
<feColorMatrix type="matrix" values="0 0 0 0 0 0 0 0 0 0 0 0 0 0 0 0 0 0 0.25 0"/>
<feBlend mode="normal" in2="BackgroundImageFix" result="effect1_dropShadow"/>
<feBlend mode="normal" in="SourceGraphic" in2="effect1_dropShadow" result="shape"/>
</filter>
<pattern id="pattern0" patternContentUnits="objectBoundingBox" width="1" height="1">
<use xlink:href="#image0" transform="translate(-0.263702) scale(0.00145329)"/>
</pattern>
<image id="image0" width="1051" height="760" xlink:href="https://www.dropbox.com/s/srjyi8jjhqd7fqp/MOSHED-2020-3-7-1-47-51.jpg?raw=1"/>
</defs>
</svg>





