<svg width="1142" height="765" viewBox="0 0 1142 765" fill="none" xmlns="http://www.w3.org/2000/svg">
<rect y="-9" width="1141" height="559" fill="url(#paint0_linear)"/>
<path d="M1141.15 655.5L1125.28 641.211C1109.41 626.654 1077.68 598.479 1045.98 594.694C1014.28 591.177 982.617 612.721 950.957 637.826C919.298 663.2 887.643 691.463 855.979 713.209C824.315 734.552 792.641 749.377 760.946 749.22C729.252 749.466 697.537 734.729 665.808 709.914C634.079 685.099 602.334 648.862 570.624 638.357C538.915 627.45 507.241 642.276 475.541 638.49C443.842 634.973 412.117 613.518 380.413 606.373C348.709 599.497 317.024 606.26 285.36 628.006C253.695 649.348 222.051 685.674 190.377 699.827C158.702 713.981 126.998 707.307 95.2833 692.771C63.5689 678.504 31.8446 657.049 15.9823 646.321L0.120145 635.593L6.63525e-05 549.593L15.8472 549.571C31.6945 549.549 63.3888 549.505 95.0832 549.46C126.778 549.416 158.472 549.372 190.166 549.328C221.861 549.283 253.555 549.239 285.25 549.195C316.944 549.151 348.639 549.106 380.333 549.062C412.027 549.018 443.722 548.974 475.416 548.929C507.111 548.885 538.805 548.841 570.499 548.797C602.194 548.752 633.888 548.708 665.583 548.664C697.277 548.62 728.971 548.575 760.666 548.531C792.36 548.487 824.055 548.443 855.749 548.398C887.443 548.354 919.138 548.31 950.832 548.266C982.527 548.221 1014.22 548.177 1045.92 548.133C1077.61 548.088 1109.3 548.044 1125.15 548.022L1141 548L1141.15 655.5Z" fill="url(#paint1_linear)"/>
<defs>
<linearGradient id="paint0_linear" x1="570.5" y1="-9" x2="570.5" y2="550" gradientUnits="userSpaceOnUse">
<stop stop-color="#EAD0EE"/>
<stop offset="1" stop-color="#EAD0EE"/>
</linearGradient>
<linearGradient id="paint1_linear" x1="570.78" y1="749.487" x2="570.499" y2="548.797" gradientUnits="userSpaceOnUse">
<stop stop-color="white"/>
<stop offset="1" stop-color="#EAD0EE"/>
</linearGradient>
</defs>
</svg>