<svg width="1146" height="1659" viewBox="0 0 1146 1659" fill="none" xmlns="http://www.w3.org/2000/svg">
<path d="M2.99094 1526.5L18.8493 1506.48C34.7081 1486.08 66.4248 1446.6 98.1223 1441.31C129.82 1436.4 161.497 1466.63 193.172 1501.84C224.846 1537.44 256.519 1577.08 288.196 1607.59C319.874 1637.53 351.556 1658.34 383.251 1658.14C414.945 1658.5 446.651 1637.86 478.365 1603.09C510.08 1568.32 541.803 1517.54 573.505 1502.83C605.208 1487.56 636.891 1508.36 668.589 1503.07C700.286 1498.16 731.997 1468.1 763.697 1458.11C795.397 1448.48 827.087 1457.99 858.764 1488.49C890.442 1518.44 922.108 1569.39 953.791 1589.25C985.474 1609.11 1017.17 1599.77 1048.88 1579.42C1080.59 1559.43 1112.3 1529.37 1128.15 1514.34L1144.01 1499.31L1143.38 3.23336L1127.65 3.03619L1018.17 2.99091C1018.17 2.99091 984.954 3.0462 953.26 2.96426C921.565 2.88231 794.905 2.96798 763.21 2.88604C731.516 2.80409 699.781 2.92849 668.086 2.84655C636.392 2.7646 568.369 2.87454 536.675 2.79259C504.98 2.71064 509.524 2.84979 477.83 2.76784C446.135 2.68589 440.869 2.822 409.174 2.74005C377.48 2.6581 377.869 2.79578 346.174 2.71383C314.48 2.63188 253.369 2.74476 221.674 2.66281C189.98 2.58086 170.369 2.71053 138.674 2.62858C106.98 2.54663 129.335 2.6936 97.6405 2.61166C65.946 2.52971 69.0213 2.63453 53.1741 2.59356L2.48056 2.57261L2.99094 1526.5Z" fill="url(#paint1_linear)"/>
<defs>
<linearGradient id="paint1_linear" x1="574.435" y1="1657.88" x2="572.122" y2="1.77729" gradientUnits="userSpaceOnUse">
<stop stop-color="#E180D7"/>
<stop offset="1" stop-color="#5773D6"/>
</linearGradient>
</defs>
</svg>