<!-- <svg width="1142" height="765" viewBox="0 0 1142 765" fill="none" xmlns="http://www.w3.org/2000/svg">
<rect y="-9" width="1141" height="559" fill="url(#paint0_linear)"/>
<path d="M1141.15 655.5L1125.28 641.211C1109.41 626.654 1077.68 598.479 1045.98 594.694C1014.28 591.177 982.617 612.721 950.957 637.826C919.298 663.2 887.643 691.463 855.979 713.209C824.315 734.552 792.641 749.377 760.946 749.22C729.252 749.466 697.537 734.729 665.808 709.914C634.079 685.099 602.334 648.862 570.624 638.357C538.915 627.45 507.241 642.276 475.541 638.49C443.842 634.973 412.117 613.518 380.413 606.373C348.709 599.497 317.024 606.26 285.36 628.006C253.695 649.348 222.051 685.674 190.377 699.827C158.702 713.981 126.998 707.307 95.2833 692.771C63.5689 678.504 31.8446 657.049 15.9823 646.321L0.120145 635.593L6.63525e-05 549.593L15.8472 549.571C31.6945 549.549 63.3888 549.505 95.0832 549.46C126.778 549.416 158.472 549.372 190.166 549.328C221.861 549.283 253.555 549.239 285.25 549.195C316.944 549.151 348.639 549.106 380.333 549.062C412.027 549.018 443.722 548.974 475.416 548.929C507.111 548.885 538.805 548.841 570.499 548.797C602.194 548.752 633.888 548.708 665.583 548.664C697.277 548.62 728.971 548.575 760.666 548.531C792.36 548.487 824.055 548.443 855.749 548.398C887.443 548.354 919.138 548.31 950.832 548.266C982.527 548.221 1014.22 548.177 1045.92 548.133C1077.61 548.088 1109.3 548.044 1125.15 548.022L1141 548L1141.15 655.5Z" fill="url(#paint1_linear)"/>
<defs>
<linearGradient id="paint0_linear" x1="570.5" y1="-9" x2="570.5" y2="550" gradientUnits="userSpaceOnUse">
<stop stop-color="#EAD0EE"/>
<stop offset="1" stop-color="#EAD0EE"/>
</linearGradient>
<linearGradient id="paint1_linear" x1="570.78" y1="749.487" x2="570.499" y2="548.797" gradientUnits="userSpaceOnUse">
<stop stop-color="white"/>
<stop offset="1" stop-color="#EAD0EE"/>
</linearGradient>
</defs>
</svg> -->

<svg width="1152" height="1120" viewBox="0 0 1152 1120" fill="none" xmlns="http://www.w3.org/2000/svg" xmlns:xlink="http://www.w3.org/1999/xlink">
<g filter="url(#filter0_d)">
<path d="M1146.53 906.151L1130.64 874.943C1114.74 843.148 1082.96 781.612 1051.26 773.299C1019.55 765.572 987.924 812.535 956.306 867.269C924.688 922.589 893.08 984.213 861.452 1031.62C829.822 1078.14 798.173 1110.44 766.478 1110.04C734.784 1110.53 703.045 1078.32 671.274 1024.11C639.504 969.905 607.699 890.775 575.973 867.8C544.245 843.945 512.596 876.246 480.89 867.932C449.184 860.206 417.424 813.332 385.708 797.688C353.993 782.63 322.319 797.336 290.69 844.739C259.061 891.262 227.477 970.481 195.826 1001.32C164.174 1032.15 132.459 1017.53 100.72 985.76C68.9823 954.574 37.2224 907.7 21.3424 884.262L5.4625 860.825L4.81278 1.90509L20.675 1.93129L99.9762 2.06225C99.9762 2.06225 130.499 2.20923 162.193 2.16498C193.888 2.12072 297.999 2.48569 329.693 2.44144C361.388 2.39718 426.499 2.6978 458.194 2.65354C489.888 2.60929 531 2.87035 562.694 2.8261C594.388 2.78185 638.582 3.04786 670.277 3.00361C701.971 2.95936 674 3.10643 705.694 3.06218C737.389 3.01793 771 3.26655 802.695 3.2223C834.389 3.17805 868 3.42667 899.695 3.38242C931.389 3.33817 953.001 3.56699 984.695 3.52273C1016.39 3.47848 1033 3.6989 1064.7 3.65465C1096.39 3.61039 1084.85 3.73633 1100.7 3.7142L1145.84 3.78875L1146.53 906.151Z" fill="url(#pattern0)"/>
</g>
<defs>
<filter id="filter0_d" x="0.263214" y="0.31189" width="1151.12" height="1118.8" filterUnits="userSpaceOnUse" color-interpolation-filters="sRGB">
<feFlood flood-opacity="0" result="BackgroundImageFix"/>
<feColorMatrix in="SourceAlpha" type="matrix" values="0 0 0 0 0 0 0 0 0 0 0 0 0 0 0 0 0 0 127 0"/>
<feOffset dy="4"/>
<feGaussianBlur stdDeviation="2"/>
<feColorMatrix type="matrix" values="0 0 0 0 0 0 0 0 0 0 0 0 0 0 0 0 0 0 0.25 0"/>
<feBlend mode="normal" in2="BackgroundImageFix" result="effect1_dropShadow"/>
<feBlend mode="normal" in="SourceGraphic" in2="effect1_dropShadow" result="shape"/>
</filter>
<pattern id="pattern0" patternContentUnits="objectBoundingBox" width="1" height="1">
<use xlink:href="#image0" transform="translate(-0.229426) scale(0.00138806)"/>
</pattern>
<image id="image0" width="1051" height="760" xlink:href="https://www.dropbox.com/s/srjyi8jjhqd7fqp/MOSHED-2020-3-7-1-47-51.jpg?raw=1"/>
</defs>
</svg>





